<mxfile host="app.diagrams.net" modified="2021-02-14T11:13:47.629Z" agent="5.0 (Windows NT 10.0; Win64; x64) AppleWebKit/537.36 (KHTML, like Gecko) Chrome/88.0.4324.150 Safari/537.36" etag="MXz6ypI46TgpmwZgcjcn" version="14.3.1" type="github">
  <diagram id="C5RBs43oDa-KdzZeNtuy" name="Page-1">
    <mxGraphModel dx="865" dy="457" grid="1" gridSize="10" guides="1" tooltips="1" connect="1" arrows="1" fold="1" page="1" pageScale="1" pageWidth="827" pageHeight="1169" math="0" shadow="0">
      <root>
        <mxCell id="WIyWlLk6GJQsqaUBKTNV-0" />
        <mxCell id="WIyWlLk6GJQsqaUBKTNV-1" parent="WIyWlLk6GJQsqaUBKTNV-0" />
        <mxCell id="m9p7119k4fNxuIrQhvH6-0" value="listCategory.html&lt;br&gt;通过超链接跳转" style="rounded=1;whiteSpace=wrap;html=1;" vertex="1" parent="WIyWlLk6GJQsqaUBKTNV-1">
          <mxGeometry x="70" y="110" width="120" height="60" as="geometry" />
        </mxCell>
        <mxCell id="m9p7119k4fNxuIrQhvH6-1" value="AdminPageController&lt;br&gt;页面跳转Controller" style="rounded=1;whiteSpace=wrap;html=1;" vertex="1" parent="WIyWlLk6GJQsqaUBKTNV-1">
          <mxGeometry x="310" y="120" width="120" height="40" as="geometry" />
        </mxCell>
        <mxCell id="m9p7119k4fNxuIrQhvH6-2" value="" style="endArrow=classic;html=1;entryX=0;entryY=0.5;entryDx=0;entryDy=0;" edge="1" parent="WIyWlLk6GJQsqaUBKTNV-1" target="m9p7119k4fNxuIrQhvH6-1">
          <mxGeometry width="50" height="50" relative="1" as="geometry">
            <mxPoint x="190" y="140" as="sourcePoint" />
            <mxPoint x="240" y="90" as="targetPoint" />
          </mxGeometry>
        </mxCell>
        <mxCell id="m9p7119k4fNxuIrQhvH6-3" value="get请求方式" style="text;html=1;strokeColor=none;fillColor=none;align=center;verticalAlign=middle;whiteSpace=wrap;rounded=0;" vertex="1" parent="WIyWlLk6GJQsqaUBKTNV-1">
          <mxGeometry x="210" y="120" width="70" height="20" as="geometry" />
        </mxCell>
        <mxCell id="m9p7119k4fNxuIrQhvH6-4" value="参数值为bean.id" style="text;html=1;strokeColor=none;fillColor=none;align=center;verticalAlign=middle;whiteSpace=wrap;rounded=0;" vertex="1" parent="WIyWlLk6GJQsqaUBKTNV-1">
          <mxGeometry x="200" y="140" width="90" height="20" as="geometry" />
        </mxCell>
        <mxCell id="m9p7119k4fNxuIrQhvH6-5" value="editCategory.html&lt;br&gt;将url格式转换为&lt;br&gt;RESTFUL风格" style="rounded=1;whiteSpace=wrap;html=1;" vertex="1" parent="WIyWlLk6GJQsqaUBKTNV-1">
          <mxGeometry x="140" y="240" width="120" height="60" as="geometry" />
        </mxCell>
        <mxCell id="m9p7119k4fNxuIrQhvH6-6" value="" style="endArrow=classic;html=1;" edge="1" parent="WIyWlLk6GJQsqaUBKTNV-1" source="m9p7119k4fNxuIrQhvH6-1" target="m9p7119k4fNxuIrQhvH6-5">
          <mxGeometry width="50" height="50" relative="1" as="geometry">
            <mxPoint x="300" y="260" as="sourcePoint" />
            <mxPoint x="350" y="210" as="targetPoint" />
          </mxGeometry>
        </mxCell>
        <mxCell id="m9p7119k4fNxuIrQhvH6-7" value="传递id值" style="text;html=1;strokeColor=none;fillColor=none;align=center;verticalAlign=middle;whiteSpace=wrap;rounded=0;" vertex="1" parent="WIyWlLk6GJQsqaUBKTNV-1">
          <mxGeometry x="240" y="190" width="50" height="20" as="geometry" />
        </mxCell>
        <mxCell id="m9p7119k4fNxuIrQhvH6-8" value="CategoryController" style="rounded=1;whiteSpace=wrap;html=1;" vertex="1" parent="WIyWlLk6GJQsqaUBKTNV-1">
          <mxGeometry x="360" y="240" width="110" height="60" as="geometry" />
        </mxCell>
        <mxCell id="m9p7119k4fNxuIrQhvH6-9" value="CategoryService&lt;br&gt;自动装配DAO&lt;br&gt;查找bean" style="rounded=1;whiteSpace=wrap;html=1;" vertex="1" parent="WIyWlLk6GJQsqaUBKTNV-1">
          <mxGeometry x="560" y="240" width="100" height="60" as="geometry" />
        </mxCell>
        <mxCell id="m9p7119k4fNxuIrQhvH6-10" value="" style="endArrow=classic;html=1;entryX=-0.003;entryY=0.658;entryDx=0;entryDy=0;entryPerimeter=0;" edge="1" parent="WIyWlLk6GJQsqaUBKTNV-1" target="m9p7119k4fNxuIrQhvH6-9">
          <mxGeometry width="50" height="50" relative="1" as="geometry">
            <mxPoint x="470" y="280" as="sourcePoint" />
            <mxPoint x="520" y="278" as="targetPoint" />
          </mxGeometry>
        </mxCell>
        <mxCell id="m9p7119k4fNxuIrQhvH6-11" value="" style="endArrow=classic;html=1;entryX=0.991;entryY=0.347;entryDx=0;entryDy=0;entryPerimeter=0;" edge="1" parent="WIyWlLk6GJQsqaUBKTNV-1" target="m9p7119k4fNxuIrQhvH6-8">
          <mxGeometry width="50" height="50" relative="1" as="geometry">
            <mxPoint x="560" y="260.52" as="sourcePoint" />
            <mxPoint x="649.7" y="260" as="targetPoint" />
          </mxGeometry>
        </mxCell>
        <mxCell id="m9p7119k4fNxuIrQhvH6-12" value="" style="endArrow=classic;html=1;entryX=-0.003;entryY=0.658;entryDx=0;entryDy=0;entryPerimeter=0;" edge="1" parent="WIyWlLk6GJQsqaUBKTNV-1">
          <mxGeometry width="50" height="50" relative="1" as="geometry">
            <mxPoint x="260" y="279" as="sourcePoint" />
            <mxPoint x="359.70000000000005" y="279.06" as="targetPoint" />
          </mxGeometry>
        </mxCell>
        <mxCell id="m9p7119k4fNxuIrQhvH6-13" value="" style="endArrow=classic;html=1;" edge="1" parent="WIyWlLk6GJQsqaUBKTNV-1">
          <mxGeometry width="50" height="50" relative="1" as="geometry">
            <mxPoint x="360" y="260.09999999999997" as="sourcePoint" />
            <mxPoint x="260" y="261" as="targetPoint" />
          </mxGeometry>
        </mxCell>
        <mxCell id="m9p7119k4fNxuIrQhvH6-14" value="get请求" style="text;html=1;strokeColor=none;fillColor=none;align=center;verticalAlign=middle;whiteSpace=wrap;rounded=0;" vertex="1" parent="WIyWlLk6GJQsqaUBKTNV-1">
          <mxGeometry x="264" y="278" width="90" height="20" as="geometry" />
        </mxCell>
        <mxCell id="m9p7119k4fNxuIrQhvH6-15" value="查找的id值" style="text;html=1;strokeColor=none;fillColor=none;align=center;verticalAlign=middle;whiteSpace=wrap;rounded=0;" vertex="1" parent="WIyWlLk6GJQsqaUBKTNV-1">
          <mxGeometry x="480" y="278" width="60" height="20" as="geometry" />
        </mxCell>
        <mxCell id="m9p7119k4fNxuIrQhvH6-16" value="返回bean" style="text;html=1;strokeColor=none;fillColor=none;align=center;verticalAlign=middle;whiteSpace=wrap;rounded=0;" vertex="1" parent="WIyWlLk6GJQsqaUBKTNV-1">
          <mxGeometry x="480" y="243" width="70" height="20" as="geometry" />
        </mxCell>
        <mxCell id="m9p7119k4fNxuIrQhvH6-17" value="bean数据" style="text;html=1;strokeColor=none;fillColor=none;align=center;verticalAlign=middle;whiteSpace=wrap;rounded=0;" vertex="1" parent="WIyWlLk6GJQsqaUBKTNV-1">
          <mxGeometry x="279" y="243" width="70" height="20" as="geometry" />
        </mxCell>
        <mxCell id="m9p7119k4fNxuIrQhvH6-18" value="" style="endArrow=none;dashed=1;html=1;dashPattern=1 3;strokeWidth=2;" edge="1" parent="WIyWlLk6GJQsqaUBKTNV-1">
          <mxGeometry width="50" height="50" relative="1" as="geometry">
            <mxPoint x="290" y="360" as="sourcePoint" />
            <mxPoint x="290" y="310" as="targetPoint" />
          </mxGeometry>
        </mxCell>
        <mxCell id="m9p7119k4fNxuIrQhvH6-19" value="" style="endArrow=none;dashed=1;html=1;dashPattern=1 3;strokeWidth=2;" edge="1" parent="WIyWlLk6GJQsqaUBKTNV-1">
          <mxGeometry width="50" height="50" relative="1" as="geometry">
            <mxPoint x="509.58000000000004" y="360" as="sourcePoint" />
            <mxPoint x="509.58000000000004" y="310" as="targetPoint" />
          </mxGeometry>
        </mxCell>
        <mxCell id="m9p7119k4fNxuIrQhvH6-20" value="前端" style="text;html=1;strokeColor=none;fillColor=none;align=center;verticalAlign=middle;whiteSpace=wrap;rounded=0;" vertex="1" parent="WIyWlLk6GJQsqaUBKTNV-1">
          <mxGeometry x="210" y="330" width="40" height="20" as="geometry" />
        </mxCell>
        <mxCell id="m9p7119k4fNxuIrQhvH6-21" value="Controller层" style="text;html=1;strokeColor=none;fillColor=none;align=center;verticalAlign=middle;whiteSpace=wrap;rounded=0;" vertex="1" parent="WIyWlLk6GJQsqaUBKTNV-1">
          <mxGeometry x="360" y="330" width="70" height="20" as="geometry" />
        </mxCell>
        <mxCell id="m9p7119k4fNxuIrQhvH6-22" value="Service层" style="text;html=1;strokeColor=none;fillColor=none;align=center;verticalAlign=middle;whiteSpace=wrap;rounded=0;" vertex="1" parent="WIyWlLk6GJQsqaUBKTNV-1">
          <mxGeometry x="571" y="329" width="70" height="20" as="geometry" />
        </mxCell>
      </root>
    </mxGraphModel>
  </diagram>
</mxfile>
